<?xml version="1.0" encoding="iso-8859-1"?>
<!-- Generator: Adobe Illustrator 19.0.0, SVG Export Plug-In . SVG Version: 6.00 Build 0)  -->
<svg version="1.1" id="Capa_1" xmlns="http://www.w3.org/2000/svg" xmlns:xlink="http://www.w3.org/1999/xlink" x="0px" y="0px"
	 viewBox="0 0 512 512" style="enable-background:new 0 0 512 512;" xml:space="preserve">
<g>
	<g>
		<path d="M0,0v512h512V0H0z M482,482H30V30h452V482z"/>
	</g>
</g>
<g>
	<g>
		<path d="M60,60v392h392V60H60z M211.801,353.44c-46.203,0-82.561-42.273-82.561-87.84c0-50.434,38.857-84.96,84-84.96
			c41.524,0,60.638,26.16,66.24,37.2l-25.439,17.52c-2.243-4.8-12.443-25.44-41.761-25.44c-23.683,0-49.44,19.414-49.44,56.64
			c0,31.273,20.758,57.6,49.92,57.6c29.338,0,40.08-21.278,42-25.92l27.121,15.6C279.158,320.241,260.431,353.44,211.801,353.44z
			 M375.238,206.08c-2.4-1.279-10.822-4.56-17.52-4.56c-11.201,0-16.801,7.522-16.801,22.56v8.88h30.721v24.48h-30.721V352h-32.16
			v-94.56h-16.56v-24.48h16.56v-7.68c0-31.947,16.242-50.88,42-50.88c10.238,0,20.559,2.483,30.961,7.44L375.238,206.08z"/>
	</g>
</g>
<g>
</g>
<g>
</g>
<g>
</g>
<g>
</g>
<g>
</g>
<g>
</g>
<g>
</g>
<g>
</g>
<g>
</g>
<g>
</g>
<g>
</g>
<g>
</g>
<g>
</g>
<g>
</g>
<g>
</g>
</svg>
